<?xml version="1.0" encoding="UTF-8"?>
<svg xmlns="http://www.w3.org/2000/svg" width="32" height="22" viewBox="0 0 190 100">
  <rect width="190" height="100" fill="#fff"/>
  <g fill="#b22234">
    <rect y="0" width="190" height="7.692"/>
    <rect y="15.384" width="190" height="7.692"/>
    <rect y="30.768" width="190" height="7.692"/>
    <rect y="46.152" width="190" height="7.692"/>
    <rect y="61.536" width="190" height="7.692"/>
    <rect y="76.92" width="190" height="7.692"/>
    <rect y="92.304" width="190" height="7.696"/>
  </g>
  <rect width="76" height="53.846" fill="#3c3b6e"/>
  <g fill="#fff" transform="translate(6,6)">
    <defs><circle id="s" r="1.5"/></defs>
    <g>
      <use href="#s" x="0" y="0"/><use href="#s" x="12" y="0"/><use href="#s" x="24" y="0"/><use href="#s" x="36" y="0"/><use href="#s" x="48" y="0"/><use href="#s" x="60" y="0"/>
      <use href="#s" x="6" y="6"/><use href="#s" x="18" y="6"/><use href="#s" x="30" y="6"/><use href="#s" x="42" y="6"/><use href="#s" x="54" y="6"/>
      <use href="#s" x="0" y="12"/><use href="#s" x="12" y="12"/><use href="#s" x="24" y="12"/><use href="#s" x="36" y="12"/><use href="#s" x="48" y="12"/><use href="#s" x="60" y="12"/>
      <use href="#s" x="6" y="18"/><use href="#s" x="18" y="18"/><use href="#s" x="30" y="18"/><use href="#s" x="42" y="18"/><use href="#s" x="54" y="18"/>
      <use href="#s" x="0" y="24"/><use href="#s" x="12" y="24"/><use href="#s" x="24" y="24"/><use href="#s" x="36" y="24"/><use href="#s" x="48" y="24"/><use href="#s" x="60" y="24"/>
    </g>
  </g>
</svg>
